<svg version="1.1" id="Layer_1" xmlns="http://www.w3.org/2000/svg" xmlns:xlink="http://www.w3.org/1999/xlink" x="0px" y="0px"
	 width="100%" viewBox="0 0 980 980" enable-background="new 0 0 980 980" xml:space="preserve">
<path fill="#000000" opacity="1.000000" stroke="none" 
	d="
M335.286652,886.215210 
	C325.922363,896.717590 311.589844,897.038391 297.968750,888.633057 
	C280.658447,877.951233 262.860718,868.061768 245.336548,857.723267 
	C236.472443,852.493774 228.811386,845.938782 229.050598,834.623901 
	C229.174606,828.758118 230.611832,822.718933 232.539658,817.132080 
	C237.362045,803.157043 242.716461,789.361938 248.066116,775.575562 
	C249.201111,772.650635 248.647385,770.888123 246.435226,768.836853 
	C238.661072,761.628418 230.983719,754.310486 223.432358,746.868896 
	C219.640335,743.132019 216.199585,739.038635 212.758835,735.280029 
	C194.293579,742.025818 176.118301,748.937073 157.742752,755.267029 
	C148.210938,758.550415 135.380707,752.684937 130.401123,743.921875 
	C118.371376,722.751831 106.278854,701.617188 94.138931,680.510071 
	C87.732018,669.370728 91.660446,654.361450 101.247330,646.956299 
	C114.839371,636.457397 127.624855,624.910645 140.644104,613.683044 
	C141.409424,613.023071 141.636719,611.107605 141.356293,609.961975 
	C137.648300,594.813965 133.935684,579.663025 129.800720,564.629333 
	C129.364059,563.041748 126.376175,561.489807 124.349335,561.110535 
	C107.302589,557.920532 90.194122,555.062439 73.124809,551.990112 
	C63.931690,550.335327 53.851513,539.153381 53.941460,527.743103 
	C54.133259,503.411896 54.139812,479.077026 53.942204,454.745880 
	C53.841209,442.310944 64.220802,430.595337 77.195671,428.877563 
	C90.020378,427.179688 102.709015,424.460419 115.467667,422.248779 
	C117.083916,421.968628 118.788521,422.205231 120.408318,421.937195 
	C129.800217,420.383148 129.493622,420.289459 132.064606,408.653137 
	C134.697464,396.736755 137.717072,384.883453 141.207642,373.193756 
	C142.142517,370.062927 141.368988,368.584259 139.436890,366.956726 
	C129.196182,358.330231 118.925491,349.739197 108.642578,341.162994 
	C105.106247,338.213623 101.267662,335.585693 97.982903,332.384338 
	C91.451515,326.018799 88.194687,313.394226 93.142807,303.889465 
	C99.907021,290.896149 107.569878,278.370544 114.851860,265.646942 
	C119.825752,256.956207 125.165276,248.451797 129.696503,239.536331 
	C135.674332,227.774628 152.235458,223.071686 164.617645,228.656601 
	C180.105667,235.642395 196.439560,240.752762 209.169632,245.472092 
	C218.167740,237.873138 226.133743,231.268066 233.953842,224.494522 
	C238.439957,220.608780 242.850784,216.603256 246.934509,212.308395 
	C247.990555,211.197739 248.421280,208.538086 247.894272,207.022995 
	C242.050446,190.222336 235.665558,173.605652 230.040054,156.734787 
	C226.129349,145.006607 231.125397,131.864349 242.614471,125.624992 
	C257.517792,117.531487 271.836548,108.368919 286.605957,100.018532 
	C294.531403,95.537613 302.665497,91.280968 311.087219,87.864059 
	C319.215729,84.566116 330.850372,89.635376 337.116180,97.827438 
	C345.097382,108.262238 354.027679,117.967400 362.415894,128.097198 
	C364.554688,130.680084 366.095490,133.749313 368.092224,136.461731 
	C369.479889,138.346741 370.755859,139.134521 373.808960,138.231384 
	C387.843231,134.079895 402.103119,130.696579 416.236298,126.868690 
	C418.737946,126.191116 420.715668,125.402992 421.243713,121.532021 
	C422.904968,109.354080 425.681702,97.330673 427.929413,85.229401 
	C429.057739,79.154579 429.802460,73.005508 431.031464,66.953117 
	C432.659149,58.937290 443.243469,49.972679 452.196259,49.928371 
	C475.958252,49.810787 499.727234,48.815514 523.475891,49.213932 
	C536.023926,49.424442 545.681885,52.460732 551.085693,67.793449 
	C553.263611,73.973007 553.875000,80.730942 554.953064,87.266281 
	C557.062073,100.051910 558.997986,112.866112 560.862610,124.756851 
	C576.660156,129.290710 591.803406,133.593979 606.911560,138.017212 
	C609.282043,138.711212 611.110535,138.836731 612.858887,136.689011 
	C620.185730,127.688637 627.533752,118.702477 635.044495,109.855904 
	C640.466919,103.469185 645.307312,96.140358 651.929626,91.325516 
	C661.814575,84.138565 672.645142,86.274719 682.869141,92.351601 
	C700.577820,102.877144 718.287537,113.409889 736.209595,123.564186 
	C747.578796,130.005798 754.467407,139.041153 752.756531,152.307480 
	C751.871948,159.167252 748.530090,165.723114 746.195007,172.379990 
	C742.038452,184.229767 737.669373,196.008224 733.774536,207.942322 
	C733.300476,209.395126 734.745361,212.077515 736.078674,213.414154 
	C742.388306,219.739426 749.094971,225.668457 755.409973,231.988632 
	C760.118896,236.701477 764.446106,241.795761 769.001831,246.784302 
	C784.180725,241.139771 799.256714,235.746170 814.160156,229.911896 
	C823.151611,226.391968 832.147888,223.299393 841.021301,229.126755 
	C845.371521,231.983658 849.694153,235.758316 852.366455,240.133286 
	C861.003967,254.274109 868.866150,268.888367 877.036438,283.314850 
	C880.208801,288.916412 883.377014,294.520691 886.598083,300.094269 
	C892.895630,310.990997 892.187195,321.720062 884.653442,331.456512 
	C881.229431,335.881653 876.151001,339.046753 871.742249,342.685516 
	C862.700806,350.148010 853.897644,357.949341 844.415039,364.807190 
	C839.203613,368.576080 839.832764,371.999420 841.441040,377.170929 
	C845.359131,389.769318 848.547607,402.595795 851.941772,415.353882 
	C852.270813,416.590515 851.985779,417.990540 851.985779,419.934784 
	C859.780457,421.293274 867.540894,422.624664 875.293091,424.001923 
	C886.444275,425.983002 897.603943,427.921173 908.733093,430.020447 
	C918.733337,431.906799 928.234131,443.729126 928.098755,454.111053 
	C927.785889,478.106384 927.744751,502.112335 928.103577,526.106323 
	C928.291138,538.643616 918.639587,551.236938 904.475220,553.129333 
	C891.630310,554.845520 878.932190,557.656189 866.164062,559.955139 
	C863.918274,560.359497 861.596680,561.090881 859.396301,560.857971 
	C853.039246,560.185059 852.107361,564.353882 850.949280,569.073730 
	C847.468994,583.257324 843.688477,597.367249 839.667908,612.884338 
	C845.077454,616.904968 851.706848,621.445068 857.881775,626.536377 
	C863.451660,631.128845 868.484192,636.368530 873.833984,641.234436 
	C876.250671,643.432495 878.875610,645.400330 881.383057,647.500061 
	C889.739258,654.497314 893.916748,667.773926 888.551086,677.767761 
	C878.998596,695.559753 868.792419,713.000305 858.902527,730.611877 
	C856.132568,735.544434 853.564270,740.589966 850.811340,745.532349 
	C847.124817,752.150635 832.603638,757.987854 824.881226,755.322266 
	C807.916260,749.466248 791.109680,743.151733 774.237427,737.027039 
	C772.599060,736.432312 770.953735,735.856812 769.010803,735.165405 
	C764.535889,740.078918 759.959167,745.042114 755.452454,750.068237 
	C749.760010,756.416870 743.672058,762.344055 736.916565,767.554626 
	C733.580811,770.127502 732.705017,772.709595 734.381836,777.081543 
	C740.253784,792.391907 745.179199,808.068115 751.155518,823.334839 
	C756.123840,836.026733 750.869324,849.755859 738.057007,857.049255 
	C719.644409,867.530823 701.472351,878.433899 683.128357,889.037231 
	C674.774658,893.865967 666.088379,896.720581 656.313171,893.044739 
	C649.423767,890.454102 645.492004,884.736572 641.103027,879.519897 
	C633.602661,870.605103 626.325378,861.502502 618.966248,852.469116 
	C618.253723,851.594421 617.601929,850.667542 616.959351,849.738892 
	C612.299683,843.004822 610.933899,843.020935 603.009583,845.392212 
	C589.291992,849.497131 575.376831,852.941833 561.017822,856.805115 
	C558.074585,874.604004 555.150940,893.013611 551.949036,911.374695 
	C550.015076,922.464783 540.473145,931.684021 529.357300,931.927856 
	C505.925537,932.441956 482.483734,932.788879 459.048615,932.674622 
	C452.377197,932.642151 445.617279,931.929626 439.644043,927.449341 
	C433.986267,923.205872 431.201599,917.767517 430.043152,911.263611 
	C426.916992,893.712219 424.072479,876.110107 420.840332,858.578979 
	C420.601471,857.283264 418.313843,855.843689 416.720215,855.400940 
	C402.272217,851.385986 387.785400,847.504028 373.248413,843.826355 
	C371.825806,843.466492 369.373871,844.219666 368.443420,845.330505 
	C359.829071,855.614563 351.433960,866.082703 342.999084,876.516663 
	C340.479065,879.633972 338.034393,882.812195 335.286652,886.215210 
M327.488190,274.005371 
	C324.491119,276.345367 321.236145,278.422852 318.541351,281.070496 
	C306.481934,292.918823 293.696442,304.183624 282.845154,317.067383 
	C268.736847,333.818207 256.380493,352.059143 247.958588,372.492554 
	C241.735001,387.592346 235.344803,402.722626 230.637878,418.324707 
	C223.931030,440.555939 220.555801,463.514587 221.069595,486.838013 
	C221.345291,499.354462 221.430161,511.986816 223.227219,524.330139 
	C225.523956,540.105469 228.788025,555.819702 232.857727,571.237549 
	C238.250931,591.669250 247.399765,610.664062 258.003113,628.920898 
	C269.077606,647.989014 281.976562,665.710815 297.759674,681.171021 
	C305.527252,688.779663 313.641296,696.047607 321.799988,703.241272 
	C337.171722,716.794800 354.631226,727.285400 372.907990,736.267151 
	C390.899323,745.108521 409.777344,751.554810 429.361389,756.351135 
	C449.995911,761.404663 470.879730,763.299683 491.895081,763.777832 
	C503.120728,764.033264 514.397827,761.998291 525.652649,761.008179 
	C541.490967,759.614746 556.808350,755.772644 571.908508,751.009399 
	C595.955322,743.424011 618.273132,732.400696 639.347107,718.454224 
	C655.166443,707.985107 669.508240,695.961426 682.828491,682.597534 
	C687.004089,678.408203 690.606934,673.614014 694.995972,669.681641 
	C698.914124,666.171082 701.384766,661.586243 704.469788,657.593811 
	C719.097473,638.663452 731.553406,618.269287 739.923462,595.743713 
	C745.052612,581.940308 749.620239,567.881653 753.549683,553.691101 
	C758.391602,536.205750 759.995789,518.121094 760.867798,500.059052 
	C761.296570,491.177795 760.760864,482.187683 759.898376,473.321045 
	C758.623779,460.216217 757.275330,447.064636 754.868164,434.135925 
	C750.822693,412.408661 743.541016,391.597046 733.877380,371.748108 
	C725.962769,355.491638 716.507080,340.134521 705.434937,325.716278 
	C693.817383,310.587738 681.351562,296.324463 666.601257,284.249695 
	C656.673767,276.123016 646.478333,268.235504 635.824219,261.105469 
	C620.023865,250.531418 603.048767,241.960480 585.083679,235.680725 
	C573.437744,231.609818 561.584045,227.930038 549.571838,225.170181 
	C538.690002,222.670029 527.500366,221.371017 516.384644,220.070679 
	C507.098145,218.984299 497.706818,217.971542 488.389832,218.179077 
	C477.108612,218.430389 465.778198,219.473282 454.612976,221.138657 
	C441.996277,223.020538 429.279877,225.081635 417.063324,228.634491 
	C384.675049,238.053757 354.849030,252.897476 327.488190,274.005371 
z"/>
<path fill="#000000" opacity="1.000000" stroke="none" 
	d="
M547.010620,610.020142 
	C552.928040,618.406067 555.173218,627.765137 557.003296,637.285950 
	C560.625427,656.129150 554.744385,673.169556 546.561279,689.577271 
	C545.283447,692.139587 543.614441,695.384155 541.849304,697.086670 
	C536.007812,702.720764 529.216125,707.446228 522.464661,712.044067 
	C509.472778,720.891724 494.677368,723.923035 479.343719,722.833557 
	C463.604004,721.715210 449.485931,715.883362 437.049896,705.700256 
	C422.214874,693.552917 414.014862,677.643005 411.349945,659.332642 
	C408.918610,642.627502 411.770752,626.198608 420.351746,611.160706 
	C427.991730,597.771912 438.638794,587.570557 452.656464,581.232910 
	C456.434540,579.524658 457.070923,577.420898 457.067688,573.774536 
	C456.982300,478.114563 456.967651,382.454468 457.051056,286.794464 
	C457.059204,277.423431 460.455170,269.435364 468.529327,263.897766 
	C478.422852,257.112335 488.855103,256.827209 498.732697,262.937836 
	C506.323944,267.634033 510.965088,275.053345 510.984741,284.508453 
	C511.030457,306.483673 510.999329,328.459045 510.999329,351.349426 
	C516.613770,350.884003 521.938538,350.126465 527.271790,350.061340 
	C541.768616,349.884338 556.270386,349.884827 570.767395,350.052094 
	C577.464417,350.129364 584.329956,354.485565 584.039917,363.087219 
	C583.816101,369.726135 578.245667,374.938934 570.594910,374.979218 
	C555.929688,375.056488 541.262390,375.109497 526.598816,374.934906 
	C521.564026,374.874969 516.537598,374.105499 511.228088,373.635437 
	C511.228088,385.737427 511.228088,397.144562 511.228088,409.323303 
	C516.744141,408.871552 522.084961,408.122253 527.434143,408.056366 
	C541.764343,407.879852 556.098083,407.989594 570.430420,407.998871 
	C578.330750,408.003998 583.942383,413.293701 583.999451,420.757751 
	C584.053406,427.813538 578.364807,432.964508 570.344788,432.986603 
	C555.845947,433.026520 541.345459,433.112030 526.848633,432.936462 
	C521.785828,432.875183 516.731750,432.100220 511.314270,431.619293 
	C511.314270,443.549652 511.314270,454.958862 511.314270,467.308350 
	C515.889404,466.878204 520.536804,466.112396 525.191650,466.063904 
	C540.688904,465.902496 556.191589,465.825348 571.686584,466.070007 
	C579.318176,466.190460 584.957886,472.554504 584.099060,479.924072 
	C583.405518,485.874756 577.792603,490.986572 570.784302,490.995575 
	C556.285278,491.014160 541.784912,491.116272 527.288025,490.939972 
	C522.063965,490.876465 516.848511,490.112732 511.288330,489.639557 
	C511.288330,519.619202 511.288330,549.041870 511.288330,578.761292 
	C526.162292,585.340515 538.511230,595.266724 547.010620,610.020142 
z"/>
</svg>