<svg version="1.1" id="Layer_1" xmlns="http://www.w3.org/2000/svg" xmlns:xlink="http://www.w3.org/1999/xlink" x="0px" y="0px"
	 width="100%" viewBox="0 0 367 256" xml:space="preserve">
<path fill="#FFFFFF" opacity="0.000000" stroke="none" 
	d="
M205.000000,257.000000 
	C136.666687,257.000000 68.833374,257.000000 1.000046,257.000000 
	C1.000030,171.666718 1.000030,86.333427 1.000015,1.000103 
	C123.333252,1.000068 245.666504,1.000068 367.999817,1.000034 
	C367.999878,86.333221 367.999878,171.666443 367.999939,256.999817 
	C313.833344,257.000000 259.666656,257.000000 205.000000,257.000000 
M223.500000,223.000000 
	C252.592606,223.000000 281.685211,223.000000 310.720032,223.000000 
	C310.720032,174.698975 310.720032,126.965858 310.720032,78.834869 
	C298.035736,78.834869 285.626495,78.834869 272.829529,78.834869 
	C272.829529,70.030472 272.829529,61.618511 272.829529,53.287136 
	C259.023376,53.287136 245.618805,53.287136 231.819427,53.287136 
	C231.819427,61.979904 231.819427,70.391197 231.819427,78.711388 
	C197.350647,78.711388 163.282440,78.711388 128.816620,78.711388 
	C128.816620,70.017036 128.816620,61.605907 128.816620,53.293465 
	C114.343819,53.293465 100.272575,53.293465 85.806953,53.293465 
	C85.806953,61.992966 85.806953,70.404030 85.806953,79.198143 
	C72.669037,79.198143 59.926708,79.198143 47.294796,79.198143 
	C47.294796,127.330750 47.294796,175.063950 47.294796,223.000000 
	C105.892906,223.000000 164.196457,223.000000 223.500000,223.000000 
z"/>
<path fill="#000000" opacity="1.000000" stroke="none" 
	d="
M223.000000,223.000000 
	C164.196457,223.000000 105.892906,223.000000 47.294796,223.000000 
	C47.294796,175.063950 47.294796,127.330750 47.294796,79.198143 
	C59.926708,79.198143 72.669037,79.198143 85.806953,79.198143 
	C85.806953,70.404030 85.806953,61.992966 85.806953,53.293465 
	C100.272575,53.293465 114.343819,53.293465 128.816620,53.293465 
	C128.816620,61.605907 128.816620,70.017036 128.816620,78.711388 
	C163.282440,78.711388 197.350647,78.711388 231.819427,78.711388 
	C231.819427,70.391197 231.819427,61.979904 231.819427,53.287136 
	C245.618805,53.287136 259.023376,53.287136 272.829529,53.287136 
	C272.829529,61.618511 272.829529,70.030472 272.829529,78.834869 
	C285.626495,78.834869 298.035736,78.834869 310.720032,78.834869 
	C310.720032,126.965858 310.720032,174.698975 310.720032,223.000000 
	C281.685211,223.000000 252.592606,223.000000 223.000000,223.000000 
M98.925919,67.017075 
	C98.672905,67.481995 98.419891,67.946907 98.043472,69.209236 
	C98.416557,72.469841 98.789642,75.730453 99.125175,78.662933 
	C105.500755,78.662933 111.205750,78.662933 116.693024,78.662933 
	C116.693024,74.269279 116.693024,70.216263 116.693024,65.427048 
	C110.686630,66.031593 105.047050,66.599213 98.925919,67.017075 
M63.000000,136.500000 
	C63.000000,160.261734 63.000000,184.023468 63.000000,207.714355 
	C140.642288,207.714355 217.710297,207.714355 294.712891,207.714355 
	C294.712891,169.357864 294.712891,131.287689 294.712891,93.285629 
	C217.357422,93.285629 140.289398,93.285629 63.000000,93.285629 
	C63.000000,107.546829 63.000000,121.523415 63.000000,136.500000 
M246.650085,66.000122 
	C244.040314,65.606255 242.657150,66.285408 242.938187,69.365097 
	C243.220016,72.453415 243.000122,75.587517 243.000122,78.759583 
	C249.550629,78.759583 255.623123,78.759583 261.757019,78.759583 
	C261.757019,74.443466 261.757019,70.371819 261.757019,66.000053 
	C256.886414,66.000053 252.252808,66.000053 246.650085,66.000122 
z"/>
<path fill="#FFFFFF" opacity="0.000000" stroke="none" 
	d="
M63.000000,136.000000 
	C63.000000,121.523415 63.000000,107.546829 63.000000,93.285629 
	C140.289398,93.285629 217.357422,93.285629 294.712891,93.285629 
	C294.712891,131.287689 294.712891,169.357864 294.712891,207.714355 
	C217.710297,207.714355 140.642288,207.714355 63.000000,207.714355 
	C63.000000,184.023468 63.000000,160.261734 63.000000,136.000000 
M244.683075,147.999893 
	C250.768158,147.999893 256.853241,147.999893 263.307190,147.999893 
	C263.307190,143.223846 263.307190,139.148331 263.307190,134.691589 
	C268.111694,134.691589 272.520142,134.691589 276.648193,134.691589 
	C276.648193,126.549080 276.648193,118.807228 276.648193,110.689499 
	C271.882843,110.689499 267.470367,110.689499 262.681946,110.689499 
	C262.681946,106.552086 262.681946,102.809608 262.681946,99.353462 
	C255.539536,99.353462 248.795303,99.353462 241.678284,99.353462 
	C241.678284,103.452362 241.678284,107.196068 241.678284,111.320541 
	C236.874130,111.320541 232.464600,111.320541 228.358139,111.320541 
	C228.358139,119.464035 228.358139,127.205948 228.358139,135.324417 
	C233.129745,135.324417 237.542343,135.324417 242.000229,135.324417 
	C242.000229,138.882797 241.868988,142.055252 242.079056,145.204910 
	C242.143265,146.167526 243.145172,147.067581 244.683075,147.999893 
M83.056778,134.253738 
	C83.293762,134.483749 83.530350,134.914627 83.767784,134.915100 
	C99.717743,134.946762 115.667763,134.943787 131.792480,134.943787 
	C131.792480,126.853371 131.792480,119.115601 131.792480,111.209976 
	C115.514290,111.209976 99.443962,111.209976 83.003868,111.209976 
	C83.003868,118.704544 83.003868,125.995407 83.056778,134.253738 
z"/>
<path fill="#FFFFFF" opacity="0.000000" stroke="none" 
	d="
M247.134644,66.000092 
	C252.252808,66.000053 256.886414,66.000053 261.757019,66.000053 
	C261.757019,70.371819 261.757019,74.443466 261.757019,78.759583 
	C255.623123,78.759583 249.550629,78.759583 243.000122,78.759583 
	C243.000122,75.587517 243.220016,72.453415 242.938187,69.365097 
	C242.657150,66.285408 244.040314,65.606255 247.134644,66.000092 
z"/>
<path fill="#FFFFFF" opacity="0.000000" stroke="none" 
	d="
M99.407463,67.166832 
	C105.047050,66.599213 110.686630,66.031593 116.693024,65.427048 
	C116.693024,70.216263 116.693024,74.269279 116.693024,78.662933 
	C111.205750,78.662933 105.500755,78.662933 99.125175,78.662933 
	C98.789642,75.730453 98.416557,72.469841 98.444633,68.528488 
	C99.033020,67.620773 99.220245,67.393799 99.407463,67.166832 
z"/>
<path fill="#FFFFFF" opacity="0.000000" stroke="none" 
	d="
M98.506340,68.129784 
	C98.419891,67.946907 98.672905,67.481995 99.166687,67.091949 
	C99.220245,67.393799 99.033020,67.620773 98.506340,68.129784 
z"/>
<path fill="#000000" opacity="1.000000" stroke="none" 
	d="
M244.200363,147.998077 
	C243.145172,147.067581 242.143265,146.167526 242.079056,145.204910 
	C241.868988,142.055252 242.000229,138.882797 242.000229,135.324417 
	C237.542343,135.324417 233.129745,135.324417 228.358139,135.324417 
	C228.358139,127.205948 228.358139,119.464035 228.358139,111.320541 
	C232.464600,111.320541 236.874130,111.320541 241.678284,111.320541 
	C241.678284,107.196068 241.678284,103.452362 241.678284,99.353462 
	C248.795303,99.353462 255.539536,99.353462 262.681946,99.353462 
	C262.681946,102.809608 262.681946,106.552086 262.681946,110.689499 
	C267.470367,110.689499 271.882843,110.689499 276.648193,110.689499 
	C276.648193,118.807228 276.648193,126.549080 276.648193,134.691589 
	C272.520142,134.691589 268.111694,134.691589 263.307190,134.691589 
	C263.307190,139.148331 263.307190,143.223846 263.307190,147.999893 
	C256.853241,147.999893 250.768158,147.999893 244.200363,147.998077 
z"/>
<path fill="#000000" opacity="1.000000" stroke="none" 
	d="
M83.030319,133.770004 
	C83.003868,125.995407 83.003868,118.704544 83.003868,111.209976 
	C99.443962,111.209976 115.514290,111.209976 131.792480,111.209976 
	C131.792480,119.115601 131.792480,126.853371 131.792480,134.943787 
	C115.667763,134.943787 99.717743,134.946762 83.767784,134.915100 
	C83.530350,134.914627 83.293762,134.483749 83.030319,133.770004 
z"/>
</svg>