<svg version="1.1" id="Layer_1" xmlns="http://www.w3.org/2000/svg" xmlns:xlink="http://www.w3.org/1999/xlink" x="0px" y="0px"
	 width="100%" viewBox="0 0 880 880" enable-background="new 0 0 880 880" xml:space="preserve">
<path fill="#000000" opacity="1.000000" stroke="none" 
	d="
M571.860107,505.086426 
	C589.357300,509.626556 606.587341,508.069977 623.826050,506.233978 
	C626.140015,505.987518 628.467407,505.727997 630.789368,505.720459 
	C639.601013,505.691895 642.542297,509.845184 639.638855,518.268066 
	C637.244995,525.212463 632.647522,530.743652 627.627808,535.882751 
	C609.402100,554.541748 586.830017,563.369568 561.106628,563.030273 
	C540.988403,562.764954 522.898865,554.718201 505.762115,544.683716 
	C502.456482,542.748108 499.713837,542.334167 496.042847,544.092285 
	C491.455902,546.289001 490.604187,549.458496 491.615845,553.826355 
	C493.316254,561.168274 496.031128,568.097656 499.684021,574.707947 
	C507.691498,589.198303 519.806885,599.829285 532.410828,610.040649 
	C535.386169,612.451172 538.414185,614.838501 541.110291,617.543213 
	C546.503235,622.953247 545.569885,628.538879 538.637268,631.916443 
	C531.130554,635.573669 522.947693,636.465820 514.771118,636.167236 
	C483.728546,635.033630 459.054108,621.932190 441.620575,596.025635 
	C433.052826,583.293762 428.334595,568.873962 424.597504,554.118591 
	C423.891571,551.331177 423.073303,548.990906 419.963593,547.600403 
	C415.499786,545.604431 412.554047,546.283447 409.890747,550.485291 
	C402.717102,561.803040 398.557831,573.978699 397.117859,587.367249 
	C395.638702,601.120422 397.874817,614.561157 399.012146,628.113892 
	C399.222626,630.621521 399.369781,633.079590 398.657166,635.543701 
	C397.389313,639.927856 394.515167,641.819641 390.008209,640.922241 
	C385.861572,640.096436 382.116028,638.234253 378.728912,635.760437 
	C358.112915,620.703491 346.673248,600.127441 342.704193,575.193115 
	C339.181946,553.065918 345.973358,533.108826 356.034149,513.901672 
	C357.502747,511.097931 358.827942,508.178741 360.628357,505.598206 
	C363.679230,501.225220 362.246552,497.476837 359.628693,493.691864 
	C357.085907,490.015564 353.751892,491.583740 350.572113,492.304138 
	C332.815155,496.327332 318.722473,506.321472 306.777740,519.603333 
	C300.878204,526.163269 295.515076,533.203003 289.689728,539.832825 
	C282.330017,548.208923 275.743256,546.922668 272.377350,536.162048 
	C267.436401,520.366211 268.807983,504.516418 273.891571,489.044312 
	C284.665558,456.253387 308.578308,437.573334 340.634766,427.898590 
	C343.183258,427.129456 345.709198,426.158936 348.319031,425.747345 
	C352.976929,425.012787 354.979340,422.667145 356.415649,417.946350 
	C358.115356,412.359833 355.935425,410.095001 351.853821,407.606537 
	C336.186676,398.054535 319.072662,395.161102 301.043732,396.013092 
	C293.224640,396.382599 285.461884,397.266144 277.676880,397.977783 
	C273.174042,398.389435 267.780762,399.741486 264.776367,395.056610 
	C261.863739,390.514801 263.779541,385.575867 266.294128,381.356049 
	C275.111053,366.560059 287.875275,356.113403 303.410126,349.068756 
	C334.511475,334.965179 364.101196,340.520935 392.795288,356.393707 
	C395.419403,357.845337 397.970428,359.435913 400.637939,360.800568 
	C404.393158,362.721680 408.018463,362.269958 411.465027,359.881042 
	C414.779633,357.583588 413.317474,354.605011 412.700134,351.733337 
	C408.079926,330.241272 394.863312,314.525757 378.531128,300.910919 
	C373.924591,297.070801 369.131958,293.439697 364.689301,289.420258 
	C357.217957,282.660614 358.312469,276.776489 367.743591,272.957397 
	C375.120972,269.969971 382.960724,269.261841 390.808319,269.748352 
	C422.474762,271.711487 447.624664,285.222229 464.640045,312.453186 
	C471.756409,323.842041 475.934448,336.518677 479.403748,349.430664 
	C480.165009,352.263885 480.534302,355.286224 483.535461,357.077393 
	C488.105835,359.805145 491.615570,359.263184 494.566406,354.840576 
	C502.800171,342.500275 507.064117,328.914093 507.757050,314.068237 
	C508.373657,300.857849 506.162506,287.838257 505.716919,274.713745 
	C505.387268,265.004211 509.756775,262.165771 518.991028,265.664062 
	C524.691711,267.823669 529.493835,271.432678 533.911438,275.528229 
	C553.044006,293.265869 562.421509,315.577606 562.801331,341.304230 
	C563.107178,362.022888 555.113464,380.627686 544.796631,398.227020 
	C542.738037,401.738831 541.741943,404.865082 543.641418,408.952148 
	C545.538879,413.034790 547.888184,414.265411 552.253845,413.286407 
	C567.477234,409.872528 580.435791,402.452118 591.660095,391.780823 
	C598.198120,385.565002 603.978577,378.681427 609.622986,371.662506 
	C612.122559,368.554291 614.732544,365.473145 617.668579,362.791443 
	C622.660461,358.231812 627.493835,359.117981 630.688171,365.127625 
	C634.209351,371.752258 635.083801,379.114258 635.195374,386.424896 
	C635.800049,426.043732 613.117249,458.691986 575.112915,473.284210 
	C568.114319,475.971375 561.030090,478.462250 553.712219,480.054626 
	C548.789368,481.125824 547.645752,484.870819 546.592773,488.711304 
	C545.563538,492.465179 548.622620,494.027863 551.116394,495.632355 
	C557.450378,499.707550 564.184326,502.950775 571.860107,505.086426 
z"/>
<path fill="#000000" opacity="1.000000" stroke="none" 
	d="
M603.698730,203.229645 
	C638.223633,221.866913 665.628052,247.867081 689.095459,278.606415 
	C714.265259,311.575684 730.483704,348.270660 737.807922,388.991302 
	C741.134949,407.488770 743.256714,426.123169 744.417542,444.893372 
	C745.218994,457.853851 746.090881,470.810486 746.151184,483.789520 
	C746.172546,488.393921 747.671326,489.797455 752.229492,489.769165 
	C779.558533,489.599518 806.889160,489.668060 834.219299,489.703461 
	C841.792419,489.713257 843.103577,488.442902 841.498779,497.669067 
	C839.335693,510.104523 837.931091,522.670349 836.079163,535.162170 
	C835.071838,541.957153 834.958130,541.952026 827.807556,541.955566 
	C788.145569,541.975159 748.483643,542.020996 708.821655,541.985718 
	C695.740845,541.974060 697.782227,543.239258 697.699463,530.815125 
	C697.595154,515.151794 698.059509,499.475952 697.599792,483.825409 
	C696.519836,447.056976 694.330811,410.414032 683.968018,374.760864 
	C675.777832,346.582611 661.278503,322.004272 642.722229,299.527771 
	C605.889282,254.913528 557.679199,231.287094 501.400330,222.283691 
	C479.157623,218.725327 456.769592,217.388382 434.281250,217.384949 
	C319.461426,217.367432 204.641571,217.377487 89.821732,217.357147 
	C87.691101,217.356766 85.488731,217.760132 83.429527,216.719467 
	C82.185989,214.694519 83.407211,212.779877 83.824425,210.953354 
	C86.673569,198.480255 89.933113,186.095230 92.512794,173.569046 
	C93.551712,168.524323 95.604736,166.928299 100.778252,166.937439 
	C190.434097,167.095963 280.090302,167.055130 369.746429,167.057785 
	C395.076782,167.058533 420.412964,166.713364 445.736206,167.138336 
	C486.692108,167.825653 526.984070,173.020737 565.884583,186.621017 
	C578.806763,191.138809 591.275391,196.667282 603.698730,203.229645 
z"/>
<path fill="#000000" opacity="1.000000" stroke="none" 
	d="
M201.996033,468.282959 
	C209.063492,546.449646 245.352158,606.091919 312.519440,646.205627 
	C335.749939,660.079346 361.453247,667.817200 388.008453,672.679260 
	C410.984039,676.885986 434.177460,678.659912 457.506134,678.667419 
	C573.498291,678.704590 689.490479,678.685059 805.482666,678.710999 
	C807.912476,678.711548 810.453308,678.219666 813.247192,679.770203 
	C812.176575,684.623718 811.162720,689.457214 810.038635,694.264893 
	C807.845398,703.645813 805.283447,712.953735 803.484314,722.408081 
	C802.510864,727.523193 800.305786,729.064453 795.164490,729.055237 
	C711.503723,728.905579 627.842651,728.945862 544.181641,728.946350 
	C515.350281,728.946533 486.518738,729.010315 457.687500,728.946228 
	C418.069763,728.858154 379.012421,724.604553 340.945282,713.047668 
	C282.895813,695.424316 237.788544,660.441589 202.583603,611.474243 
	C177.627289,576.761963 162.802094,538.387817 156.471069,496.313232 
	C152.352615,468.942871 150.710159,441.425720 149.814240,413.824921 
	C149.570648,406.320587 149.662720,406.311890 142.354721,406.312103 
	C115.189888,406.312805 88.025055,406.319550 60.860218,406.319641 
	C53.410976,406.319641 53.470398,406.321045 54.538067,398.881592 
	C56.331001,386.388519 58.035656,373.882782 59.785637,361.383514 
	C60.805855,354.096558 60.812984,354.051697 68.093178,354.047150 
	C101.090927,354.026550 134.088699,354.035492 167.086456,354.030396 
	C175.419220,354.029114 183.758026,354.202179 192.082367,353.933228 
	C196.704666,353.783905 198.511856,355.080322 198.427307,360.099426 
	C198.132660,377.592499 198.062531,395.098450 198.390137,412.590424 
	C198.735825,431.047150 199.694168,449.489655 201.996033,468.282959 
z"/>
</svg>