<svg version="1.1" id="Layer_1" xmlns="http://www.w3.org/2000/svg" xmlns:xlink="http://www.w3.org/1999/xlink" x="0px" y="0px"
	 width="100%" viewBox="0 0 200 200" enable-background="new 0 0 200 200" xml:space="preserve">
<path fill="#000000" opacity="1.000000" stroke="none" 
	d="
M141.912964,106.255981 
	C141.955368,110.700409 139.679855,112.202530 135.919739,112.188805 
	C127.455055,112.157906 118.990189,112.179108 110.354156,112.179108 
	C109.607391,116.331085 109.794678,119.464912 113.107285,122.585777 
	C118.162582,127.348442 118.499825,135.980072 114.722137,141.830170 
	C110.851456,147.824249 103.338516,150.692642 96.406136,148.823029 
	C89.736343,147.024261 84.491730,140.477814 85.200554,133.179291 
	C85.586174,129.208679 88.054726,125.439056 89.592270,121.582161 
	C90.384483,119.594925 91.880699,117.619461 91.893448,115.631203 
	C92.052505,90.820335 91.911743,66.007378 92.118317,41.197208 
	C92.141258,38.441898 93.051369,34.722343 94.951218,33.208813 
	C97.153351,31.454466 101.028900,30.778646 103.952309,31.200140 
	C107.964508,31.778614 109.727005,35.428253 109.939064,39.331993 
	C110.171768,43.615791 109.992058,47.921993 109.992058,52.710609 
	C118.488815,52.710609 126.602173,52.734421 134.715286,52.699619 
	C138.273117,52.684361 141.833649,53.069458 141.853119,57.577881 
	C141.872482,62.070263 138.640015,63.101887 134.655136,63.039532 
	C126.670166,62.914585 118.681870,63.002426 110.348877,63.002426 
	C110.348877,67.627747 110.348877,72.156258 110.348877,77.095688 
	C118.346146,77.095688 126.292976,77.136795 134.239059,77.077827 
	C138.039932,77.049629 141.398880,77.700813 141.923325,82.232803 
	C142.336136,85.800133 139.445251,87.836983 134.239380,87.861221 
	C126.293770,87.898216 118.347855,87.870911 110.205330,87.870911 
	C110.205330,92.687065 110.205330,97.103851 110.205330,101.997581 
	C118.582169,101.997581 126.856384,102.111496 135.124710,101.940544 
	C138.353668,101.873779 140.575134,102.907272 141.912964,106.255981 
z"/>
<path fill="#000000" opacity="1.000000" stroke="none" 
	d="
M61.647423,171.607773 
	C58.538738,171.059067 55.238476,171.210114 53.213421,169.676910 
	C46.159306,164.336029 39.065338,161.769211 30.663067,167.378021 
	C30.299276,167.044159 29.935488,166.710312 29.571697,166.376450 
	C30.343218,163.108307 30.147291,158.989716 32.104195,156.763596 
	C35.355091,153.065491 40.467144,153.196198 45.087376,154.609116 
	C47.082809,155.219345 48.897663,156.554840 50.665112,157.751968 
	C57.562389,162.423645 63.158264,162.437576 69.857262,157.682846 
	C77.028168,152.593170 82.350418,152.240860 89.514877,157.078979 
	C97.298576,162.335266 104.717270,162.301025 112.490791,157.069656 
	C119.486618,152.361694 125.053406,152.636688 131.757187,157.373474 
	C139.098602,162.560806 144.243301,162.497498 151.746994,157.461929 
	C153.896317,156.019577 156.324844,154.504684 158.796677,154.117874 
	C168.419586,152.611938 172.304932,156.508255 171.581039,166.406540 
	C171.308044,166.506882 170.934204,166.782410 170.760361,166.688339 
	C162.921738,162.446609 156.112030,164.135345 149.228119,169.394638 
	C144.516647,172.994171 138.543884,172.871124 133.900528,169.190384 
	C125.773682,162.748367 118.386208,163.023102 110.021507,168.860428 
	C103.993538,173.067062 96.989815,172.608658 90.953255,168.315781 
	C83.283150,162.861252 76.186874,162.797043 68.798088,168.741577 
	C66.975853,170.207626 64.315567,170.632034 61.647423,171.607773 
z"/>
<path fill="#000000" opacity="1.000000" stroke="none" 
	d="
M59.151054,136.357925 
	C63.896400,135.221558 68.208969,134.028671 72.803619,132.757751 
	C72.970970,137.060562 74.671196,141.279068 69.104179,144.241989 
	C63.287109,147.337982 57.954315,148.020996 52.253540,144.634995 
	C49.709572,143.123978 47.355606,140.885834 44.611897,140.210190 
	C40.068333,139.091324 35.543613,139.539154 31.386906,142.617493 
	C28.484364,144.767029 24.922989,146.026917 20.349026,148.347107 
	C20.349026,144.266861 20.051689,141.802582 20.471020,139.466980 
	C20.689676,138.249115 21.967270,136.904678 23.124186,136.238129 
	C25.501383,134.868515 28.342871,134.248901 30.597025,132.731842 
	C38.072151,127.701004 42.967484,127.778740 50.648632,132.915115 
	C53.028934,134.506821 56.011471,135.197952 59.151054,136.357925 
z"/>
<path fill="#000000" opacity="1.000000" stroke="none" 
	d="
M134.972931,145.315323 
	C128.681641,142.782852 127.608887,138.417679 129.686523,132.255173 
	C131.000305,132.842712 132.342239,133.281921 133.517410,133.995712 
	C139.185425,137.438400 145.055969,137.638947 150.233093,133.656647 
	C157.978683,127.698662 165.232971,127.449570 172.725815,133.756531 
	C173.589188,134.483246 174.684784,134.982803 175.741180,135.423508 
	C182.338455,138.175781 182.491684,138.465591 180.861328,147.675552 
	C177.598450,146.169403 174.168182,145.302383 171.663910,143.285553 
	C165.888321,138.634186 157.144028,138.514404 151.506561,143.256744 
	C146.647980,147.343887 141.176025,148.190460 134.972931,145.315323 
z"/>
</svg>