<svg version="1.1" id="Layer_1" xmlns="http://www.w3.org/2000/svg" xmlns:xlink="http://www.w3.org/1999/xlink" x="0px" y="0px"
	 width="100%" viewBox="0 0 200 200" enable-background="new 0 0 200 200" xml:space="preserve">
<path fill="#000000" opacity="1.000000" stroke="none" 
	d="
M63.044693,139.555817 
	C59.406147,139.555801 56.259418,139.555801 52.409985,139.555801 
	C52.409985,130.365692 52.098827,121.427635 52.535049,112.526215 
	C52.769802,107.735901 51.054939,105.612167 46.743408,103.810081 
	C34.977497,98.892319 23.454350,93.393723 11.304308,87.884567 
	C15.141641,79.377838 18.852028,71.152527 22.794737,62.412197 
	C34.885506,67.885124 46.642944,73.158569 58.324142,78.595810 
	C59.170937,78.989975 59.858997,80.545906 59.937809,81.612167 
	C60.156258,84.567657 60.013519,87.549843 60.013519,90.510635 
	C66.075081,90.510635 71.701569,90.510635 77.587112,90.510635 
	C77.587112,88.741417 77.587112,87.174950 77.587112,85.276917 
	C73.428749,85.276917 69.484131,85.276917 65.240326,85.276917 
	C65.240326,82.740891 65.240326,80.526779 65.240326,78.076805 
	C77.050804,78.076805 88.801247,78.076805 100.846085,78.076805 
	C100.846085,80.310852 100.846085,82.516403 100.846085,85.051025 
	C96.624329,85.051025 92.515190,85.051025 87.991486,85.051025 
	C87.991486,87.031487 87.991486,88.696106 87.991486,90.713760 
	C94.522758,90.713760 100.827042,90.879852 107.116440,90.645859 
	C110.414536,90.523155 112.695793,91.321503 114.544701,94.259987 
	C116.736435,97.743332 119.484261,100.876770 122.186523,104.417999 
	C137.398438,97.239075 152.367844,90.148941 167.360733,83.108849 
	C176.100815,79.004829 176.085907,79.073929 182.995163,85.723785 
	C184.412949,87.088348 186.167343,88.103165 188.219086,89.611961 
	C184.932693,91.971550 182.815948,93.491341 180.637161,95.055672 
	C178.451126,92.715889 176.408920,90.530067 173.412064,87.322449 
	C169.199539,90.740578 164.326569,93.647720 160.824783,97.730820 
	C149.989471,110.364822 139.766235,123.522224 129.053940,136.265060 
	C127.610092,137.982605 124.736328,139.387558 122.505890,139.415100 
	C102.851852,139.657822 83.193550,139.555832 63.044693,139.555817 
M143.996445,102.866898 
	C136.075729,106.586647 128.155014,110.306404 120.054672,114.110512 
	C116.987770,110.084785 113.916168,106.363159 111.206451,102.394432 
	C109.166100,99.406082 106.926064,98.048172 103.060951,98.142273 
	C90.406227,98.450401 77.739326,98.257942 65.077103,98.257942 
	C63.490524,98.257942 61.903950,98.257950 60.486824,98.257950 
	C60.486824,109.944656 60.486824,120.855431 60.486824,131.941238 
	C80.662071,131.941238 100.480034,131.980606 120.296997,131.857574 
	C121.701187,131.848862 123.537239,131.010864 124.428787,129.939575 
	C131.664200,121.245399 138.721970,112.403397 146.285049,103.274101 
	C146.324707,102.912498 146.364365,102.550903 146.404007,102.189293 
	C145.834335,102.354584 145.264664,102.519875 143.996445,102.866898 
M30.594397,75.976837 
	C29.011402,75.255600 27.428408,74.534370 25.654505,73.726151 
	C24.182568,77.094376 22.958160,79.896187 21.617731,82.963486 
	C31.932903,87.627220 41.824158,92.099289 51.843555,96.629295 
	C53.552105,86.320732 53.549995,86.325378 44.856617,82.379295 
	C40.337330,80.327904 35.827019,78.256737 30.594397,75.976837 
z"/>
<path fill="#000000" opacity="1.000000" stroke="none" 
	d="
M186.905441,109.106705 
	C188.256439,112.521133 190.169754,115.535896 190.424255,118.684723 
	C190.632202,121.257576 189.608383,125.175766 187.767410,126.337860 
	C185.691452,127.648308 181.439148,127.545250 179.346008,126.187538 
	C177.478653,124.976280 175.981888,120.875908 176.573578,118.648720 
	C178.042038,113.121063 180.796967,107.935165 183.390228,101.767517 
	C184.739990,104.578293 185.745255,106.671654 186.905441,109.106705 
z"/>
</svg>