<svg version="1.1" id="Layer_1" xmlns="http://www.w3.org/2000/svg" xmlns:xlink="http://www.w3.org/1999/xlink" x="0px" y="0px"
	 width="100%" viewBox="0 0 816 640" enable-background="new 0 0 816 640" xml:space="preserve">
<path fill="#000000" opacity="1.000000" stroke="none" 
	d="
M491.949799,583.683105 
	C499.711517,584.871033 504.517914,581.866272 509.429810,576.273926 
	C548.901428,531.334351 588.767334,486.741058 628.504028,442.034332 
	C629.263794,441.179596 629.919617,440.232574 630.163696,438.273590 
	C570.697266,458.205994 511.230804,478.138397 451.944214,498.010529 
	C449.933624,495.578033 451.384827,493.630249 451.811584,491.858704 
	C454.574219,480.390015 457.743347,469.016296 460.340515,457.512390 
	C461.239166,453.531921 463.105591,451.690399 466.927673,450.572388 
	C512.118103,437.353210 557.268616,423.997559 602.423645,410.657471 
	C648.530579,397.036133 694.663452,383.500610 740.692444,369.620758 
	C746.404846,367.898193 750.037415,368.673523 754.195312,372.979065 
	C762.749634,381.837219 771.968811,390.052216 780.883728,398.563995 
	C782.544556,400.149689 784.762268,401.788330 782.705688,404.442200 
	C774.560608,414.953094 766.340210,425.405579 758.323547,435.654877 
	C755.458862,435.505920 754.354858,433.641846 752.988342,432.305817 
	C747.388428,426.830811 741.772400,421.363983 736.391968,415.676788 
	C734.179749,413.338440 732.053528,412.579010 728.916077,413.418640 
	C716.869568,416.642548 704.778381,419.700806 692.689880,422.765442 
	C690.345459,423.359772 688.591797,424.482147 687.001343,426.417236 
	C648.075256,473.776031 609.075073,521.073853 570.091003,568.385010 
	C555.789978,585.740723 541.453064,603.067200 527.242859,620.496948 
	C524.929260,623.334778 522.427307,624.435608 518.718323,624.432373 
	C408.400604,624.335876 298.082733,624.355713 187.764908,624.352173 
	C180.044815,624.351929 180.046661,624.333984 180.044678,616.707397 
	C180.035751,582.378906 179.927475,548.049927 180.122787,513.722595 
	C180.151810,508.622620 178.687042,506.125549 173.690643,504.334015 
	C128.407120,488.097076 83.231789,471.558472 38.016563,455.130829 
	C29.973291,452.208557 30.029102,452.276245 32.279366,443.798523 
	C41.620365,408.606812 50.975128,373.418396 60.141853,338.181183 
	C61.231655,333.991974 62.461296,332.839172 66.887482,334.459778 
	C116.123505,352.486908 165.425583,370.334015 214.747543,388.125122 
	C218.117386,389.340668 219.434494,391.121277 219.319153,394.702484 
	C219.088577,401.860809 219.535202,409.047485 219.142715,416.191742 
	C218.871475,421.129028 220.200531,423.072388 225.466049,422.763489 
	C232.938934,422.325165 240.458893,422.754730 247.955475,422.625122 
	C251.176727,422.569427 252.382782,423.807953 252.343918,427.022614 
	C252.223114,437.019714 252.226257,447.019928 252.333786,457.017273 
	C252.368515,460.245026 251.102417,461.440002 247.898987,461.386566 
	C240.235764,461.258698 232.566147,461.480652 224.904282,461.317902 
	C221.406677,461.243622 220.287796,462.579041 220.295486,466.013123 
	C220.379700,503.674286 220.378891,541.335754 220.298782,578.996948 
	C220.291382,582.479858 221.607498,583.906250 224.999969,583.688293 
	C226.493332,583.592407 227.998444,583.682495 229.498215,583.682495 
	C316.818512,583.683167 404.138824,583.683289 491.949799,583.683105 
M177.847641,460.993866 
	C180.706848,460.895996 179.698868,458.643768 179.709183,457.272980 
	C179.795578,445.792511 179.663864,434.309906 179.804733,422.830536 
	C179.844269,419.608429 178.574875,418.186005 175.587662,417.141266 
	C149.232635,407.923737 122.935379,398.541107 96.612633,389.231079 
	C94.786499,388.585175 92.976242,387.568909 90.356194,388.480621 
	C87.376686,399.079376 84.456627,409.967621 81.202843,420.755188 
	C80.138901,424.282562 81.053329,425.658783 84.440536,426.885559 
	C115.384438,438.092957 146.263809,449.478516 177.847641,460.993866 
z"/>
<path fill="#000000" opacity="1.000000" stroke="none" 
	d="
M477.000000,245.250153 
	C448.841522,245.262207 421.183075,245.265152 393.524597,245.291229 
	C386.347046,245.298004 386.342010,245.331253 386.339996,252.432144 
	C386.336792,263.595520 386.334259,274.758881 386.345062,285.922241 
	C386.351562,292.666138 386.363098,292.648041 392.892303,292.647827 
	C427.048798,292.646729 461.205261,292.652496 495.361755,292.663666 
	C502.196533,292.665924 502.207245,292.681427 502.223358,299.565857 
	C502.239380,306.397125 502.234375,313.228424 502.232056,320.059723 
	C502.229584,327.319519 502.226227,327.325439 494.689789,327.326477 
	C461.033112,327.331116 427.376404,327.333527 393.719727,327.333282 
	C386.144073,327.333221 385.873810,327.914307 386.568756,335.264526 
	C387.777771,348.051239 387.005798,360.894958 386.953247,373.709503 
	C386.932556,378.750427 388.218658,382.079651 392.441132,385.435425 
	C409.835297,399.259613 415.351257,423.580353 406.557343,444.659241 
	C398.143158,464.827972 376.642548,477.484467 354.664124,475.206451 
	C332.513641,472.910614 314.136200,456.618011 309.974701,434.847595 
	C306.159027,414.886078 311.989258,397.891357 327.787872,384.921570 
	C331.609222,381.784454 332.823425,378.664032 332.818451,373.962708 
	C332.716095,276.824951 332.747528,179.687012 332.764618,82.549126 
	C332.767181,67.908875 340.224274,57.653374 353.269989,54.235519 
	C370.035583,49.843102 386.269836,62.166309 386.323639,79.373940 
	C386.367920,93.536285 386.528839,107.702736 386.238495,121.859177 
	C386.138428,126.739151 387.769135,128.112671 392.506927,128.090134 
	C426.329437,127.929131 460.153107,127.997993 493.976379,128.005890 
	C502.221283,128.007812 502.223236,128.028580 502.224701,136.284241 
	C502.225891,143.115540 501.965118,149.959686 502.306274,156.773819 
	C502.551575,161.673462 500.618439,163.141647 495.939606,163.105423 
	C475.613556,162.948074 455.285553,163.040543 434.958252,163.048553 
	C421.129028,163.054016 407.299805,163.060760 393.470612,163.085068 
	C386.541718,163.097244 386.352539,163.279129 386.343842,169.950577 
	C386.328827,181.447144 386.533997,192.948563 386.248047,204.438019 
	C386.130157,209.174362 387.530762,210.772934 392.424438,210.746628 
	C426.746643,210.562302 461.070251,210.646103 495.393433,210.654678 
	C502.194336,210.656372 502.207184,210.677338 502.219086,217.592773 
	C502.232269,225.257141 502.134674,232.922867 502.255066,240.585327 
	C502.309082,244.022842 500.901276,245.358932 497.490692,245.288498 
	C490.829681,245.150940 484.163849,245.249100 477.000000,245.250153 
z"/>
<path fill="#000000" opacity="1.000000" stroke="none" 
	d="
M777.294922,577.355713 
	C762.193359,589.664551 734.894653,584.852844 730.501892,559.032898 
	C728.882080,549.511658 730.435608,540.934448 734.210876,532.385010 
	C738.641357,522.351562 743.581909,512.451965 745.148315,501.444305 
	C746.293274,493.398315 746.614807,485.231415 747.858459,477.204376 
	C749.042908,469.559662 752.118164,467.426788 759.811707,467.669128 
	C765.270447,467.841095 767.718079,470.032654 769.304565,476.043549 
	C771.230530,483.340851 770.915466,490.874359 771.755737,498.283630 
	C773.281128,511.733643 779.749023,523.546021 784.559753,535.916870 
	C790.406433,550.951904 788.714478,564.875854 777.294922,577.355713 
z"/>
</svg>